<svg xmlns="http://www.w3.org/2000/svg" width="251" height="227" viewBox="0 0 251 227" fill="none">
<path d="M114.433 178.434C76.0468 173.485 44.6511 151.522 31.6798 115.411C19.5169 81.5276 33.9929 24.9885 105.826 25.69C142.409 26.0449 141.904 75.6004 150.833 91.8897C162.648 124.786 227.714 101.385 233.96 118.784C246.927 154.903 149.155 182.909 114.433 178.434Z" fill="#EFF6FF"/>
<path d="M197.88 63.5489L125.465 21.5919C125.251 21.4677 125.009 21.4023 124.763 21.4023C124.516 21.4023 124.274 21.4677 124.061 21.5919L52.5437 63.5489C52.3385 63.6779 52.1692 63.8571 52.0513 64.0698C51.9335 64.2825 51.871 64.5218 51.8698 64.7655V147.774C51.8662 148.023 51.9264 148.268 52.0445 148.486C52.1625 148.704 52.3345 148.888 52.5437 149.019L124.061 190.976C124.313 191.103 124.593 191.161 124.875 191.146C125.11 191.147 125.342 191.089 125.549 190.976L197.88 149.019C198.092 148.889 198.269 148.706 198.391 148.488C198.514 148.271 198.58 148.025 198.582 147.774V64.7655C198.575 64.5197 198.507 64.2796 198.385 64.0671C198.262 63.8546 198.088 63.6764 197.88 63.5489V63.5489ZM195.774 146.954L126.195 187.298L124.791 188.119L123.387 187.298L54.6777 146.982V65.5859L56.0535 64.7655L89.2428 45.3006L92.0506 43.6596L124.875 24.4494L194.398 64.7655L195.802 65.5859L195.774 146.954Z" fill="#001B5E"/>
<path d="M194.684 64.5782L161.124 84.0776L136.137 69.332L150.238 61.2761C150.455 61.1495 150.635 60.9667 150.759 60.7465C150.883 60.5263 150.947 60.2768 150.943 60.0235C150.945 59.7711 150.877 59.523 150.748 59.3069C150.618 59.0909 150.432 58.9152 150.21 58.7995L133.853 49.6049C133.64 49.4926 133.403 49.434 133.162 49.434C132.921 49.434 132.684 49.4926 132.471 49.6049L117.496 58.1448L92.1147 43.2569L124.857 24.0137L194.684 64.5782Z" fill="#DBEAFE"/>
<path d="M158.336 85.536L124.87 104.97L55.7671 64.454L89.0921 44.9062L114.466 59.7375L100.37 67.8067C100.156 67.9373 99.9794 68.1207 99.856 68.3395C99.7327 68.5583 99.6668 68.8052 99.6647 69.0568C99.663 69.3088 99.7305 69.5564 99.8599 69.7721C99.9893 69.9877 100.175 70.1631 100.398 70.2786L116.75 79.4558C116.968 79.569 117.21 79.6274 117.455 79.6263C117.695 79.6307 117.931 79.5613 118.132 79.4274L133.102 70.9036L158.336 85.536Z" fill="#DBEAFE"/>
<path d="M195.985 67.1016V146.866L125.875 187.229V107.437L195.985 67.1016Z" fill="#DBEAFE"/>
<path d="M123.278 107.446V187.229L54.4658 146.885V67.1016L123.278 107.446Z" fill="#DBEAFE"/>
<path d="M197.282 65.7068L195.194 66.9529L126.199 108.249L125.475 108.683C125.272 108.808 125.042 108.877 124.807 108.886C124.554 108.878 124.306 108.808 124.083 108.683L123.415 108.278L55.2826 66.9819L53.1665 65.7068L54.5865 63.1855L56.6469 64.4317L124.89 105.757L158.023 85.9345L160.808 84.2827L193.941 64.4317L196.029 63.1855L197.282 65.7068Z" fill="#001B5E"/>
<path d="M125.874 107.582H123.277V189.843H125.874V107.582Z" fill="#001B5E"/>
<path d="M161.375 83.834L136.166 69.1865L133.805 67.8292L132.382 70.2893L133.293 70.8265L158.701 85.4741L160.806 86.69L162.229 84.2582L161.375 83.834ZM117.132 58.1584L91.5241 43.3695L89.6463 42.2949L88.2236 44.7268L88.7073 45.0095L114.315 59.7702L116.705 61.1558L118.156 58.6956L117.132 58.1584Z" fill="#001B5E"/>
<path d="M149.596 59.4238L133.451 50.2985C133.24 50.1871 133.006 50.1289 132.769 50.1289C132.532 50.1289 132.298 50.1871 132.087 50.2985L117.306 58.774L114.522 60.3844L100.604 68.4079C100.393 68.5378 100.218 68.7202 100.097 68.9377C99.9749 69.1553 99.9098 69.4008 99.9077 69.651C99.906 69.9016 99.9727 70.1478 100.1 70.3622C100.228 70.5766 100.412 70.751 100.632 70.8658L116.777 79.9911C116.992 80.1037 117.231 80.1618 117.473 80.1607C117.71 80.1651 117.943 80.0961 118.141 79.9629L132.922 71.4874L135.928 69.9053L149.847 61.91C150.061 61.7844 150.239 61.6029 150.361 61.3844C150.484 61.1659 150.546 60.9182 150.543 60.6669C150.532 60.3856 150.435 60.1149 150.265 59.8921C150.095 59.6694 149.862 59.5057 149.596 59.4238V59.4238ZM117.501 77.2507L104.195 69.7357L132.783 53.1519L146.089 60.6669L117.501 77.2507Z" fill="#1D4ED8"/>
<path d="M146.651 60.4767L117.414 77.5492L103.806 69.8128L133.043 52.7402L146.651 60.4767Z" fill="#1D4ED8"/>
<path d="M96.5544 115.42L96.101 117.767C95.773 119.465 94.7294 121.161 91.7385 119.688L78.2496 112.15C76.091 111.1 74.7243 110.052 75.0523 108.354L75.5057 106.007C75.8336 104.309 76.7349 102.324 79.8836 103.69L93.5695 111.313C95.4756 112.329 96.8823 113.722 96.5544 115.42Z" fill="#1D4ED8"/>
<line y1="-1" x2="81.5519" y2="-1" transform="matrix(0.857663 -0.514213 0.509919 0.860222 128.54 198.611)" stroke="#B0C4DE" stroke-width="2" stroke-dasharray="2 2"/>
<line x1="202.913" y1="147.949" x2="202.913" y2="63.1182" stroke="#B0C4DE" stroke-width="2" stroke-dasharray="2 2"/>
<line y1="-1" x2="81.5519" y2="-1" transform="matrix(0.857663 0.514213 -0.509919 0.860222 51.8701 156.674)" stroke="#B0C4DE" stroke-width="2" stroke-dasharray="2 2"/>
</svg>
